<svg width="146" height="178" viewBox="0 0 146 178" fill="none" xmlns="http://www.w3.org/2000/svg">
<rect x="0.5" y="0.5" width="145" height="177" rx="9.5" fill="#F6F6F6"/>
<rect x="0.5" y="0.5" width="145" height="177" rx="9.5" stroke="black" stroke-dasharray="4 4"/>
<path d="M72.041 96.7915H74.9577V90.9582H80.791V88.0415H74.9577V82.2082H72.041V88.0415H66.2077V90.9582H72.041V96.7915ZM73.4993 104.083C71.482 104.083 69.5862 103.706 67.8118 102.953C66.0375 102.175 64.4941 101.13 63.1816 99.8175C61.8691 98.505 60.824 96.9616 60.0462 95.1873C59.2928 93.413 58.916 91.5172 58.916 89.4998C58.916 87.4825 59.2928 85.5866 60.0462 83.8123C60.824 82.038 61.8691 80.4946 63.1816 79.1821C64.4941 77.8696 66.0375 76.8366 67.8118 76.0832C69.5862 75.3054 71.482 74.9165 73.4993 74.9165C75.5167 74.9165 77.4125 75.3054 79.1868 76.0832C80.9612 76.8366 82.5046 77.8696 83.8171 79.1821C85.1296 80.4946 86.1625 82.038 86.916 83.8123C87.6938 85.5866 88.0827 87.4825 88.0827 89.4998C88.0827 91.5172 87.6938 93.413 86.916 95.1873C86.1625 96.9616 85.1296 98.505 83.8171 99.8175C82.5046 101.13 80.9612 102.175 79.1868 102.953C77.4125 103.706 75.5167 104.083 73.4993 104.083ZM73.4993 101.167C76.7563 101.167 79.515 100.036 81.7754 97.7759C84.0358 95.5155 85.166 92.7568 85.166 89.4998C85.166 86.2429 84.0358 83.4842 81.7754 81.2238C79.515 78.9634 76.7563 77.8332 73.4993 77.8332C70.2424 77.8332 67.4837 78.9634 65.2233 81.2238C62.9629 83.4842 61.8327 86.2429 61.8327 89.4998C61.8327 92.7568 62.9629 95.5155 65.2233 97.7759C67.4837 100.036 70.2424 101.167 73.4993 101.167Z" fill="#81909F"/>
<path d="M43.696 125H42.2983L45.4389 116.273H46.9602L50.1009 125H48.7031L46.2358 117.858H46.1676L43.696 125ZM43.9304 121.582H48.4645V122.69H43.9304V121.582ZM53.6037 125.128C53.0753 125.128 52.6037 124.993 52.1889 124.723C51.777 124.45 51.4531 124.062 51.2173 123.56C50.9844 123.054 50.8679 122.447 50.8679 121.74C50.8679 121.033 50.9858 120.428 51.2216 119.925C51.4602 119.422 51.7869 119.037 52.2017 118.77C52.6165 118.503 53.0866 118.369 53.6122 118.369C54.0185 118.369 54.3452 118.438 54.5923 118.574C54.8423 118.707 55.0355 118.864 55.1719 119.043C55.3111 119.222 55.419 119.379 55.4957 119.516H55.5724V116.273H56.8466V125H55.6023V123.982H55.4957C55.419 124.121 55.3082 124.28 55.1634 124.459C55.0213 124.638 54.8253 124.794 54.5753 124.928C54.3253 125.061 54.0014 125.128 53.6037 125.128ZM53.8849 124.041C54.2514 124.041 54.5611 123.945 54.8139 123.751C55.0696 123.555 55.2628 123.284 55.3935 122.938C55.527 122.591 55.5938 122.187 55.5938 121.727C55.5938 121.273 55.5284 120.875 55.3977 120.534C55.267 120.193 55.0753 119.928 54.8224 119.737C54.5696 119.547 54.2571 119.452 53.8849 119.452C53.5014 119.452 53.1818 119.551 52.9261 119.75C52.6705 119.949 52.4773 120.22 52.3466 120.564C52.2188 120.908 52.1548 121.295 52.1548 121.727C52.1548 122.165 52.2202 122.558 52.3509 122.908C52.4815 123.257 52.6747 123.534 52.9304 123.739C53.1889 123.94 53.5071 124.041 53.8849 124.041ZM61.1154 125.128C60.587 125.128 60.1154 124.993 59.7006 124.723C59.2887 124.45 58.9648 124.062 58.729 123.56C58.4961 123.054 58.3796 122.447 58.3796 121.74C58.3796 121.033 58.4975 120.428 58.7333 119.925C58.9719 119.422 59.2987 119.037 59.7134 118.77C60.1282 118.503 60.5984 118.369 61.1239 118.369C61.5302 118.369 61.8569 118.438 62.104 118.574C62.354 118.707 62.5472 118.864 62.6836 119.043C62.8228 119.222 62.9308 119.379 63.0075 119.516H63.0842V116.273H64.3583V125H63.114V123.982H63.0075C62.9308 124.121 62.82 124.28 62.6751 124.459C62.533 124.638 62.337 124.794 62.087 124.928C61.837 125.061 61.5131 125.128 61.1154 125.128ZM61.3967 124.041C61.7631 124.041 62.0728 123.945 62.3256 123.751C62.5813 123.555 62.7745 123.284 62.9052 122.938C63.0387 122.591 63.1055 122.187 63.1055 121.727C63.1055 121.273 63.0401 120.875 62.9094 120.534C62.7788 120.193 62.587 119.928 62.3342 119.737C62.0813 119.547 61.7688 119.452 61.3967 119.452C61.0131 119.452 60.6935 119.551 60.4379 119.75C60.1822 119.949 59.989 120.22 59.8583 120.564C59.7305 120.908 59.6665 121.295 59.6665 121.727C59.6665 122.165 59.7319 122.558 59.8626 122.908C59.9933 123.257 60.1864 123.534 60.4421 123.739C60.7006 123.94 61.0188 124.041 61.3967 124.041ZM69.3526 125V118.455H70.6268V125H69.3526ZM69.9961 117.445C69.7745 117.445 69.5842 117.371 69.4251 117.223C69.2688 117.072 69.1907 116.893 69.1907 116.686C69.1907 116.476 69.2688 116.297 69.4251 116.149C69.5842 115.999 69.7745 115.923 69.9961 115.923C70.2177 115.923 70.4066 115.999 70.5629 116.149C70.7219 116.297 70.8015 116.476 70.8015 116.686C70.8015 116.893 70.7219 117.072 70.5629 117.223C70.4066 117.371 70.2177 117.445 69.9961 117.445ZM72.3409 125V118.455H73.5639V119.52H73.6449C73.7813 119.159 74.0043 118.878 74.3139 118.676C74.6236 118.472 74.9943 118.369 75.4261 118.369C75.8636 118.369 76.2301 118.472 76.5256 118.676C76.8239 118.881 77.044 119.162 77.1861 119.52H77.2543C77.4105 119.17 77.6591 118.892 78 118.685C78.3409 118.474 78.7472 118.369 79.2188 118.369C79.8125 118.369 80.2969 118.555 80.6719 118.928C81.0497 119.3 81.2386 119.861 81.2386 120.611V125H79.9645V120.73C79.9645 120.287 79.8438 119.966 79.6023 119.767C79.3608 119.568 79.0724 119.469 78.7372 119.469C78.3224 119.469 78 119.597 77.7699 119.852C77.5398 120.105 77.4247 120.43 77.4247 120.828V125H76.1548V120.649C76.1548 120.294 76.044 120.009 75.8224 119.793C75.6009 119.577 75.3125 119.469 74.9574 119.469C74.7159 119.469 74.4929 119.533 74.2884 119.661C74.0866 119.786 73.9233 119.96 73.7983 120.185C73.6761 120.409 73.6151 120.669 73.6151 120.964V125H72.3409ZM84.8512 125.145C84.4364 125.145 84.0614 125.068 83.7262 124.915C83.391 124.759 83.1254 124.533 82.9293 124.237C82.7362 123.942 82.6396 123.58 82.6396 123.151C82.6396 122.781 82.7106 122.477 82.8526 122.239C82.9947 122 83.1864 121.811 83.4279 121.672C83.6694 121.533 83.9393 121.428 84.2376 121.357C84.5359 121.286 84.8398 121.232 85.1495 121.195C85.5415 121.149 85.8597 121.112 86.104 121.084C86.3484 121.053 86.5259 121.003 86.6367 120.935C86.7475 120.866 86.8029 120.756 86.8029 120.602V120.572C86.8029 120.2 86.6978 119.912 86.4876 119.707C86.2802 119.503 85.9705 119.401 85.5586 119.401C85.1296 119.401 84.7915 119.496 84.5444 119.686C84.3001 119.874 84.131 120.082 84.0373 120.312L82.8398 120.04C82.9819 119.642 83.1893 119.321 83.462 119.077C83.7376 118.83 84.0543 118.651 84.4123 118.54C84.7702 118.426 85.1467 118.369 85.5415 118.369C85.8029 118.369 86.0799 118.401 86.3725 118.463C86.668 118.523 86.9435 118.634 87.1992 118.795C87.4577 118.957 87.6694 119.189 87.8342 119.49C87.9989 119.788 88.0813 120.176 88.0813 120.653V125H86.837V124.105H86.7859C86.7035 124.27 86.5799 124.432 86.4151 124.591C86.2504 124.75 86.0387 124.882 85.7802 124.987C85.5217 125.092 85.212 125.145 84.8512 125.145ZM85.1282 124.122C85.4805 124.122 85.7816 124.053 86.0316 123.913C86.2844 123.774 86.4762 123.592 86.6069 123.368C86.7404 123.141 86.8072 122.898 86.8072 122.639V121.795C86.7617 121.841 86.6737 121.884 86.543 121.923C86.4151 121.96 86.2688 121.993 86.104 122.021C85.9393 122.047 85.7788 122.071 85.6225 122.094C85.4663 122.114 85.3356 122.131 85.2305 122.145C84.9833 122.176 84.7575 122.229 84.5529 122.303C84.3512 122.376 84.1893 122.483 84.0671 122.622C83.9478 122.759 83.8881 122.94 83.8881 123.168C83.8881 123.483 84.0046 123.722 84.2376 123.884C84.4705 124.043 84.7674 124.122 85.1282 124.122ZM92.5227 127.591C92.0028 127.591 91.5554 127.523 91.1804 127.386C90.8082 127.25 90.5043 127.07 90.2685 126.845C90.0327 126.621 89.8565 126.375 89.7401 126.108L90.8352 125.656C90.9119 125.781 91.0142 125.913 91.142 126.053C91.2727 126.195 91.4489 126.315 91.6705 126.415C91.8949 126.514 92.1832 126.564 92.5355 126.564C93.0185 126.564 93.4176 126.446 93.733 126.21C94.0483 125.977 94.206 125.605 94.206 125.094V123.807H94.125C94.0483 123.946 93.9375 124.101 93.7926 124.271C93.6506 124.442 93.4545 124.589 93.2045 124.714C92.9545 124.839 92.6293 124.902 92.2287 124.902C91.7116 124.902 91.2457 124.781 90.831 124.54C90.419 124.295 90.0923 123.936 89.8509 123.462C89.6122 122.984 89.4929 122.398 89.4929 121.702C89.4929 121.006 89.6108 120.409 89.8466 119.912C90.0852 119.415 90.4119 119.034 90.8267 118.77C91.2415 118.503 91.7116 118.369 92.2372 118.369C92.6435 118.369 92.9716 118.438 93.2216 118.574C93.4716 118.707 93.6662 118.864 93.8054 119.043C93.9474 119.222 94.0568 119.379 94.1335 119.516H94.2273V118.455H95.4759V125.145C95.4759 125.707 95.3452 126.169 95.0838 126.53C94.8224 126.891 94.4688 127.158 94.0227 127.331C93.5795 127.504 93.0795 127.591 92.5227 127.591ZM92.5099 123.845C92.8764 123.845 93.1861 123.76 93.4389 123.589C93.6946 123.416 93.8878 123.169 94.0185 122.848C94.152 122.524 94.2188 122.136 94.2188 121.685C94.2188 121.244 94.1534 120.857 94.0227 120.521C93.892 120.186 93.7003 119.925 93.4474 119.737C93.1946 119.547 92.8821 119.452 92.5099 119.452C92.1264 119.452 91.8068 119.551 91.5511 119.75C91.2955 119.946 91.1023 120.213 90.9716 120.551C90.8438 120.889 90.7798 121.267 90.7798 121.685C90.7798 122.114 90.8452 122.49 90.9759 122.814C91.1065 123.138 91.2997 123.391 91.5554 123.572C91.8139 123.754 92.1321 123.845 92.5099 123.845ZM100.006 125.132C99.3608 125.132 98.8054 124.994 98.3395 124.719C97.8764 124.44 97.5185 124.05 97.2656 123.547C97.0156 123.041 96.8906 122.449 96.8906 121.77C96.8906 121.099 97.0156 120.509 97.2656 119.997C97.5185 119.486 97.8707 119.087 98.3224 118.8C98.777 118.513 99.3082 118.369 99.9162 118.369C100.286 118.369 100.643 118.43 100.99 118.553C101.337 118.675 101.648 118.866 101.923 119.128C102.199 119.389 102.416 119.729 102.575 120.146C102.734 120.561 102.814 121.065 102.814 121.659V122.111H97.6108V121.156H101.565C101.565 120.821 101.497 120.524 101.361 120.266C101.224 120.004 101.033 119.798 100.786 119.648C100.541 119.497 100.254 119.422 99.9247 119.422C99.5668 119.422 99.2543 119.51 98.9872 119.686C98.723 119.859 98.5185 120.087 98.3736 120.368C98.2315 120.646 98.1605 120.949 98.1605 121.276V122.021C98.1605 122.459 98.2372 122.831 98.3906 123.138C98.5469 123.445 98.7642 123.679 99.0426 123.841C99.321 124 99.6463 124.08 100.018 124.08C100.26 124.08 100.48 124.045 100.679 123.977C100.878 123.906 101.05 123.801 101.195 123.662C101.339 123.523 101.45 123.351 101.527 123.146L102.733 123.364C102.636 123.719 102.463 124.03 102.213 124.297C101.966 124.561 101.655 124.767 101.28 124.915C100.908 125.06 100.483 125.132 100.006 125.132Z" fill="#81909F"/>
</svg>
