<svg width="61" height="55" viewBox="0 0 61 55" fill="none" xmlns="http://www.w3.org/2000/svg">
<path fill-rule="evenodd" clip-rule="evenodd" d="M0 15.4167C0 12.4251 2.42512 10 5.41667 10H47.9167C50.9082 10 53.3333 12.4251 53.3333 15.4167V48.75C53.3333 51.7415 50.9082 54.1667 47.9167 54.1667H5.41667C2.42513 54.1667 0 51.7415 0 48.75V15.4167ZM5.41667 12.5C3.80584 12.5 2.5 13.8058 2.5 15.4167V48.75C2.5 50.3608 3.80584 51.6667 5.41667 51.6667H47.9167C49.5275 51.6667 50.8333 50.3608 50.8333 48.75V15.4167C50.8333 13.8058 49.5275 12.5 47.9167 12.5H5.41667Z" fill="#81909F"/>
<circle cx="12.5007" cy="21.6667" r="5.41667" fill="#81909F"/>
<path d="M7.08398 45.0002V41.9405C7.08398 41.4985 7.25958 41.0746 7.57214 40.762L14.7103 33.6239C15.3393 32.9948 16.3516 32.9707 17.0099 33.5692L19.2579 35.6128C19.9095 36.2051 20.9094 36.1884 21.5408 35.5746L34.239 23.229C34.8925 22.5938 35.9349 22.6011 36.5793 23.2455L46.5958 33.262C46.9084 33.5746 47.084 33.9985 47.084 34.4405V45.0002C47.084 45.9206 46.3378 46.6668 45.4173 46.6668H8.75065C7.83018 46.6668 7.08398 45.9206 7.08398 45.0002Z" fill="#81909F"/>
<rect x="37" y="1" width="23" height="22" fill="#D8DEE6"/>
<rect width="24" height="24" transform="translate(37)" fill="#D8DEE6"/>
<rect x="48" y="5" width="2" height="14" rx="1" fill="#81909F"/>
<rect x="56" y="11" width="2" height="14" rx="1" transform="rotate(90 56 11)" fill="#81909F"/>
</svg>
