<svg width="26" height="26" viewBox="0 0 26 26" fill="none" xmlns="http://www.w3.org/2000/svg">
<path fill-rule="evenodd" clip-rule="evenodd" d="M14.0537 25.2427C14.0537 25.6611 14.3928 26.0002 14.8112 26.0002H25.2643C25.6826 26.0002 26.0243 25.6602 25.9982 25.2426C25.623 19.2363 20.8177 14.4307 14.8113 14.0556C14.3939 14.0295 14.0537 14.3711 14.0537 14.7895V25.2427Z" fill="#157BC0"/>
<path fill-rule="evenodd" clip-rule="evenodd" d="M11.9459 14.8117C11.9459 14.3933 11.6067 14.0542 11.1884 14.0542H0.735277C0.316927 14.0542 -0.0246926 14.3943 0.00140214 14.8118C0.376577 20.8182 5.18196 25.6237 11.1882 25.9989C11.6057 26.0249 11.9459 25.6833 11.9459 25.265V14.8117Z" fill="#157BC0"/>
<path fill-rule="evenodd" clip-rule="evenodd" d="M11.9459 11.1886C11.9459 11.6069 11.6067 11.9461 11.1884 11.9461H0.735277C0.316927 11.9461 -0.0246926 11.6059 0.00140214 11.1884C0.376577 5.18205 5.18196 0.376583 11.1882 0.00140216C11.6057 -0.0246931 11.9459 0.316932 11.9459 0.73529V11.1886Z" fill="#157BC0"/>
<path fill-rule="evenodd" clip-rule="evenodd" d="M14.0537 0.757483C14.0537 0.339136 14.3928 0 14.8112 0H25.2643C25.6826 0 26.0243 0.340095 25.9982 0.757626C25.623 6.76397 20.8177 11.5695 14.8113 11.9447C14.3939 11.9707 14.0537 11.6291 14.0537 11.2108V0.757483Z" fill="#157BC0"/>
</svg>
