<svg width="29" height="27" viewBox="0 0 29 27" fill="none" xmlns="http://www.w3.org/2000/svg">
<path d="M26.3333 24.75L24 22.5M14.0833 23.625C15.5388 23.625 16.9801 23.3486 18.3247 22.8115C19.6694 22.2744 20.8913 21.4871 21.9204 20.4947C22.9496 19.5023 23.766 18.3241 24.323 17.0274C24.88 15.7308 25.1667 14.341 25.1667 12.9375C25.1667 11.534 24.88 10.1442 24.323 8.84757C23.766 7.5509 22.9496 6.37272 21.9204 5.3803C20.8913 4.38787 19.6694 3.60063 18.3247 3.06354C16.9801 2.52644 15.5388 2.25 14.0833 2.25C11.1439 2.25 8.32476 3.376 6.24623 5.3803C4.1677 7.38459 3 10.103 3 12.9375C3 15.772 4.1677 18.4904 6.24623 20.4947C8.32476 22.499 11.1439 23.625 14.0833 23.625V23.625Z" stroke="white" stroke-opacity="0.96" stroke-width="1.5" stroke-linecap="round" stroke-linejoin="round"/>
</svg>
