<svg width="83" height="15" viewBox="0 0 83 15" fill="none" xmlns="http://www.w3.org/2000/svg">
<path d="M7.32229 0.888672L9.70172 4.9455L14.3223 5.93911L11.1723 9.43998L11.6485 14.1109L7.32229 12.2177L2.99605 14.1109L3.47229 9.43998L0.32229 5.93911L4.94286 4.9455L7.32229 0.888672Z" fill="#FFCB45"/>
<path d="M24.3223 0.888672L26.7017 4.9455L31.3223 5.93911L28.1723 9.43998L28.6485 14.1109L24.3223 12.2177L19.9961 14.1109L20.4723 9.43998L17.3223 5.93911L21.9429 4.9455L24.3223 0.888672Z" fill="#FFCB45"/>
<path d="M41.3223 0.888672L43.7017 4.9455L48.3223 5.93911L45.1723 9.43998L45.6485 14.1109L41.3223 12.2177L36.9961 14.1109L37.4723 9.43998L34.3223 5.93911L38.9429 4.9455L41.3223 0.888672Z" fill="#FFCB45"/>
<path d="M58.3223 0.888672L60.7017 4.9455L65.3223 5.93911L62.1723 9.43998L62.6485 14.1109L58.3223 12.2177L53.9961 14.1109L54.4723 9.43998L51.3223 5.93911L55.9429 4.9455L58.3223 0.888672Z" fill="#FFCB45"/>
<path d="M75.3223 0.888672L77.7017 4.9455L82.3223 5.93911L79.1723 9.43998L79.6485 14.1109L75.3223 12.2177L70.996 14.1109L71.4723 9.43998L68.3223 5.93911L72.9428 4.9455L75.3223 0.888672Z" fill="#C6C6C6"/>
<path d="M70.996 14.1109L75.3223 12.2177V0.888672L72.9428 4.9455L68.3223 5.93911L71.4723 9.43998L70.996 14.1109Z" fill="#FFCB45"/>
</svg>
