<svg xmlns="http://www.w3.org/2000/svg" width="20" height="21" viewBox="0 0 20 21" fill="none">
<path d="M17.0701 14.3203C16.0001 14.3203 15.1001 15.2003 15.1001 16.2803C15.1001 17.3603 15.9701 18.2403 17.0701 18.2403C18.1701 18.2403 19.0101 17.3603 19.0101 16.2803C19.0301 15.2003 18.1401 14.3203 17.0701 14.3203Z" fill="#2E2F3C"/>
<path d="M3.3699 14.3203C2.2999 14.3203 1.3999 15.2003 1.3999 16.2803C1.3999 17.3603 2.2699 18.2403 3.3699 18.2403C4.4699 18.2403 5.3099 17.3603 5.3099 16.2803C5.3299 15.2003 4.4399 14.3203 3.3699 14.3203Z" fill="#2E2F3C"/>
<path fill-rule="evenodd" clip-rule="evenodd" d="M4.17994 7.19043C3.70994 7.72043 3.43994 8.42043 3.43994 9.18043C3.43994 10.9204 4.90994 12.3404 6.70994 12.3404C7.49994 12.3404 8.21994 12.0704 8.76994 11.6204L7.87994 10.7604C7.66994 10.9704 7.36994 11.1104 7.00994 11.1504V11.3804C7.00994 11.5404 6.87994 11.6704 6.70994 11.6704C6.53994 11.6704 6.40994 11.5504 6.40994 11.3804V11.1504C5.83994 11.0504 5.40994 10.7004 5.27994 10.1904C5.23994 10.0304 5.33994 9.88043 5.48994 9.84043C5.65994 9.80043 5.80994 9.90043 5.84994 10.0504C5.95994 10.4604 6.39994 10.6004 6.73994 10.6004C7.03994 10.6004 7.28994 10.5004 7.43994 10.3504L6.50994 9.45043C5.61994 9.27043 5.40994 8.79043 5.37994 8.40043V8.36043L4.16994 7.19043H4.17994Z" fill="#2E2F3C"/>
<path fill-rule="evenodd" clip-rule="evenodd" d="M9.21986 11.2095C9.70986 10.6595 9.97986 9.95953 9.97986 9.17953C9.97986 7.43953 8.50986 6.01953 6.70986 6.01953C5.89986 6.01953 5.17986 6.30953 4.60986 6.75953L5.58986 7.69953C5.75986 7.46953 6.03986 7.28953 6.37986 7.22953H6.41986V6.99953C6.41986 6.83953 6.54986 6.70953 6.71986 6.70953C6.88986 6.70953 7.01986 6.82953 7.01986 6.99953V7.22953C7.43986 7.30953 7.84986 7.55953 8.03986 8.02953C8.09986 8.16953 8.03986 8.35953 7.86986 8.41953C7.71986 8.47953 7.52986 8.41953 7.46986 8.25953C7.29986 7.84953 6.84986 7.74953 6.48986 7.80953C6.29986 7.84953 6.08986 7.94953 5.99986 8.13953L6.75986 8.87953C7.09986 8.93953 7.98986 9.10953 8.09986 9.94953C8.09986 10.0295 8.11986 10.1095 8.09986 10.1995L9.22986 11.2295L9.21986 11.2095Z" fill="#2E2F3C"/>
<path d="M19.9999 11.2903V14.6603C19.9999 15.0803 19.7799 15.4303 19.5099 15.5603C19.1799 14.5003 18.1999 13.7103 17.0699 13.7103C15.9399 13.7103 14.9099 14.5003 14.5999 15.5803H14.1099V11.2803H19.9999V11.2903Z" fill="#2E2F3C"/>
<path d="M19.9598 10.6198H14.0898V5.50977H17.1098C17.4198 5.50977 17.7298 5.72977 17.9098 6.09977L19.8698 10.3298C19.9098 10.4198 19.9398 10.5098 19.9598 10.6198Z" fill="#2E2F3C"/>
<path d="M12.49 2.75977H0.93C0.42 2.75977 0 3.30977 0 3.96977V14.3698C0 15.0098 0.38 15.5398 0.84 15.5798C1.15 14.4798 2.17 13.6598 3.35 13.6598C4.53 13.6598 5.55 14.4798 5.86 15.5998H13.42V3.96977C13.42 3.30977 13 2.75977 12.49 2.75977ZM6.71 12.8698C4.58 12.8698 2.84 11.2198 2.84 9.16977C2.84 7.11977 4.57 5.48977 6.71 5.48977C8.85 5.48977 10.58 7.18976 10.58 9.18976C10.58 11.1898 8.85 12.8698 6.71 12.8698Z" fill="#2E2F3C"/>
</svg>