<svg xmlns="http://www.w3.org/2000/svg" width="20" height="21" viewBox="0 0 20 21" fill="none">
<g clip-path="url(#clip0_55_1332)">
<path d="M16.4099 8.37017L16.7099 9.34017L17.6799 9.63017C17.7899 9.66017 17.8399 9.78017 17.8099 9.88017C17.7899 9.94017 17.7399 9.99017 17.6799 10.0102L16.7099 10.3102L16.4099 11.2802C16.3799 11.3802 16.2699 11.4402 16.1699 11.4102C16.0999 11.3902 16.0499 11.3402 16.0399 11.2802L15.7399 10.3102L14.7699 10.0102C14.6599 9.98017 14.6099 9.86017 14.6399 9.76017C14.6599 9.70017 14.7099 9.65017 14.7699 9.63017L15.7399 9.34017L16.0399 8.37017C16.0699 8.27017 16.1799 8.21017 16.2899 8.24017C16.3499 8.26017 16.3999 8.31017 16.4099 8.37017Z" fill="#2E2F3C"/>
<path d="M18.4599 4.1599L18.7899 5.2199L19.8599 5.5499C19.9799 5.5799 20.0399 5.6999 19.9999 5.8199C19.9799 5.8899 19.9199 5.9399 19.8599 5.9599L18.7899 6.2899L18.4599 7.3499C18.4199 7.4599 18.3099 7.5299 18.1899 7.4999C18.1199 7.4799 18.0699 7.4199 18.0399 7.3499L17.7199 6.2899L16.6499 5.9599C16.5299 5.9299 16.4699 5.8099 16.5099 5.6899C16.5299 5.6199 16.5899 5.5699 16.6499 5.5499L17.7199 5.2199L18.0399 4.1599C18.0799 4.0499 18.1999 3.9799 18.3099 4.0099C18.3799 4.0299 18.4299 4.0899 18.4599 4.1599Z" fill="#2E2F3C"/>
<path d="M2.14 17.28C2.14 17.35 1.93 17.39 1.5 17.39C1.07 17.39 0.86 17.35 0.86 17.28V14.19H0.19C0.06 14.19 0 14 0 13.59C0 13.45 0.01 13.32 0.04 13.19C0.07 13.06 0.11 13 0.18 13H1.9C1.97 13 2.03 13.02 2.07 13.05C2.11 13.08 2.14 13.12 2.14 13.17V17.29V17.28Z" fill="#2E2F3C"/>
<path d="M4.43014 17.4504C3.91014 17.4504 3.48014 17.2604 3.14014 16.8704C2.81014 16.4904 2.64014 15.9204 2.64014 15.1904C2.64014 14.4604 2.81014 13.8904 3.14014 13.5104C3.47014 13.1304 3.91014 12.9404 4.43014 12.9404C4.95014 12.9404 5.39014 13.1304 5.71014 13.5004C6.03014 13.8704 6.20014 14.4404 6.20014 15.2004C6.20014 15.9604 6.03014 16.5204 5.70014 16.8904C5.37014 17.2604 4.94014 17.4404 4.41014 17.4404L4.43014 17.4504ZM4.43014 14.1504C4.27014 14.1504 4.13014 14.2404 4.02014 14.4204C3.91014 14.6004 3.85014 14.8604 3.85014 15.1904C3.85014 15.5204 3.90014 15.7804 4.01014 15.9604C4.12014 16.1404 4.25014 16.2304 4.42014 16.2304C4.59014 16.2304 4.73014 16.1404 4.83014 15.9604C4.94014 15.7804 4.99014 15.5204 4.99014 15.1904C4.99014 14.8604 4.93014 14.6004 4.82014 14.4204C4.71014 14.2404 4.57014 14.1504 4.41014 14.1504H4.43014Z" fill="#2E2F3C"/>
<path d="M19.3099 13.8699C19.2299 13.8199 19.1399 13.7999 19.0599 13.8099C17.8899 13.9099 16.7099 13.6699 15.6899 13.1299C14.6899 12.6099 13.8199 11.8099 13.2099 10.7599C12.5999 9.70988 12.3399 8.54988 12.3899 7.42988C12.4399 6.26988 12.8199 5.12988 13.4899 4.16988C13.6099 3.98988 13.5699 3.74988 13.3899 3.62988C13.3099 3.57988 13.2199 3.55988 13.1299 3.56988C12.6299 3.60988 12.1499 3.69988 11.6699 3.84988C11.1899 3.99988 10.7299 4.20988 10.2699 4.47988C8.60989 5.42988 7.49988 6.96988 7.03988 8.68988C6.66988 10.0599 6.72988 11.5499 7.25988 12.9499C7.56988 12.7499 7.93989 12.6599 8.34989 12.6599C8.96989 12.6599 9.47988 12.8899 9.86988 13.3299C10.2499 13.7599 10.4399 14.3999 10.4399 15.2299C10.4399 15.7099 10.3799 16.1199 10.2499 16.4699C10.7799 16.7799 11.3599 17.0199 11.9499 17.1799C13.6599 17.6399 15.5499 17.4399 17.1999 16.4799C17.6799 16.1999 18.0899 15.9099 18.4599 15.5799C18.8299 15.2399 19.1399 14.8699 19.4299 14.4399C19.5499 14.2599 19.4999 14.0199 19.3199 13.8999L19.3099 13.8699Z" fill="#2E2F3C"/>
<path d="M8.31978 17.4502C7.79978 17.4502 7.36979 17.2602 7.02979 16.8802C6.69979 16.5002 6.52979 15.9302 6.52979 15.2002C6.52979 14.4702 6.69979 13.9002 7.02979 13.5202C7.35979 13.1402 7.79978 12.9502 8.31978 12.9502C8.83978 12.9502 9.27979 13.1402 9.59979 13.5102C9.91979 13.8802 10.0898 14.4502 10.0898 15.2102C10.0898 15.9702 9.92979 16.5302 9.58979 16.9002C9.24979 17.2702 8.82979 17.4602 8.30979 17.4602L8.31978 17.4502ZM8.31978 14.1502C8.15978 14.1502 8.01978 14.2402 7.90978 14.4202C7.79978 14.6002 7.73978 14.8602 7.73978 15.1902C7.73978 15.5202 7.78979 15.7802 7.89979 15.9602C8.00979 16.1402 8.13979 16.2302 8.30979 16.2302C8.47979 16.2302 8.61979 16.1402 8.71979 15.9602C8.82979 15.7802 8.87979 15.5202 8.87979 15.1902C8.87979 14.8602 8.81978 14.6002 8.70978 14.4202C8.59978 14.2402 8.45979 14.1502 8.29979 14.1502H8.31978Z" fill="#2E2F3C"/>
</g>
<defs>
<clipPath id="clip0_55_1332">
<rect width="20" height="20" fill="white" transform="translate(0 0.5)"/>
</clipPath>
</defs>
</svg>