<svg xmlns="http://www.w3.org/2000/svg" width="20" height="21" viewBox="0 0 20 21" fill="none">
<path d="M5.61 17.5897C3.96 17.5897 2.61 16.9897 1.57 15.7797C0.53 14.5697 0 12.7997 0 10.4797C0 8.15969 0.53 6.39969 1.58 5.20969C2.63 4.01969 3.99 3.42969 5.65 3.42969C7.31 3.42969 8.66 4.01969 9.68 5.19969C10.7 6.37969 11.22 8.15969 11.22 10.5397C11.22 12.9197 10.7 14.6897 9.65 15.8497C8.61 17.0097 7.26 17.5897 5.61 17.5897ZM5.61 7.19969C5.1 7.19969 4.68 7.48969 4.33 8.05969C3.98 8.62969 3.81 9.43969 3.81 10.4897C3.81 11.5397 3.98 12.3497 4.31 12.8997C4.64 13.4597 5.08 13.7397 5.61 13.7397C6.14 13.7397 6.58 13.4597 6.91 12.8897C7.24 12.3297 7.41 11.5197 7.41 10.4697C7.41 9.41969 7.24 8.60969 6.89 8.04969C6.54 7.48969 6.11 7.19969 5.61 7.19969Z" fill="#2E2F3C"/>
<path d="M13.8399 8.77C14.3299 8.77 14.7299 8.95 15.0399 9.3C15.3499 9.66 15.5099 10.18 15.5099 10.86C15.5099 11.54 15.3599 12.06 15.0499 12.42C14.7399 12.78 14.3499 12.95 13.8599 12.95C13.3699 12.95 12.9799 12.78 12.6599 12.43C12.3499 12.09 12.1899 11.56 12.1899 10.86C12.1899 10.16 12.3399 9.64 12.6499 9.28C12.9499 8.93 13.3499 8.75 13.8399 8.75V8.77ZM18.0999 8.87C18.1699 8.81 18.2299 8.78 18.3099 8.78C18.5799 8.78 18.8199 8.91 19.0399 9.18C19.1299 9.29 19.1699 9.38 19.1699 9.45C19.1699 9.52 19.1599 9.57 19.1299 9.61L13.9699 16.52C13.8999 16.58 13.8399 16.61 13.7599 16.61C13.4999 16.61 13.2599 16.47 13.0399 16.2C12.9499 16.09 12.8999 16 12.8999 15.94C12.8999 15.88 12.9099 15.82 12.9399 15.79L18.0999 8.88V8.87ZM14.3699 10.86C14.3699 10.39 14.1999 10.15 13.8599 10.15C13.5199 10.15 13.3499 10.39 13.3499 10.86C13.3499 11.08 13.3999 11.25 13.4899 11.37C13.5799 11.49 13.7099 11.54 13.8599 11.54C14.0099 11.54 14.1399 11.48 14.2299 11.37C14.3199 11.25 14.3699 11.08 14.3699 10.86ZM18.3299 12.4C18.8199 12.4 19.2199 12.58 19.5299 12.93C19.8399 13.29 19.9999 13.81 19.9999 14.49C19.9999 15.17 19.8499 15.69 19.5399 16.05C19.2299 16.41 18.8399 16.58 18.3499 16.58C17.8599 16.58 17.4699 16.41 17.1499 16.06C16.8399 15.72 16.6799 15.19 16.6799 14.49C16.6799 13.79 16.8299 13.27 17.1399 12.91C17.4399 12.56 17.8399 12.38 18.3299 12.38V12.4ZM18.8599 14.49C18.8599 14.02 18.6899 13.78 18.3499 13.78C18.0099 13.78 17.8399 14.02 17.8399 14.49C17.8399 14.71 17.8899 14.88 17.9799 15C18.0699 15.12 18.1999 15.17 18.3499 15.17C18.4999 15.17 18.6299 15.11 18.7199 15C18.8099 14.88 18.8599 14.71 18.8599 14.49Z" fill="#2E2F3C"/>
</svg>