<svg xmlns="http://www.w3.org/2000/svg" width="20" height="21" viewBox="0 0 20 21" fill="none">
<g clip-path="url(#clip0_55_1311)">
<path d="M5.5502 17.4901C5.5902 17.3901 5.7802 17.3301 6.1302 17.3301C6.2202 17.3301 6.3202 17.3301 6.4402 17.3501C6.5602 17.3601 6.6102 17.3801 6.6002 17.3901L5.6602 19.2501V20.3401C5.6602 20.3901 5.5802 20.4301 5.4102 20.4501C5.3302 20.4601 5.2402 20.4701 5.1602 20.4701C5.0802 20.4701 5.0002 20.4701 4.9202 20.4601C4.7502 20.4401 4.6702 20.4001 4.6702 20.3501V19.2901L3.7002 17.4101C3.7002 17.4101 3.7502 17.3801 3.8802 17.3601C4.0202 17.3401 4.1302 17.3401 4.2202 17.3401C4.5902 17.3401 4.7902 17.3901 4.8302 17.5001L5.1602 18.4101L5.5402 17.5001L5.5502 17.4901Z" fill="#2E2F3C"/>
<path d="M8.21 18.5796C8.27 18.5796 8.3 18.6796 8.3 18.8896C8.3 18.9496 8.3 19.0296 8.28 19.1096C8.26 19.1896 8.24 19.2396 8.21 19.2396H7.64V19.6896H8.47C8.52 19.6896 8.56 19.7596 8.57 19.8896C8.57 19.9496 8.58 20.0096 8.58 20.0696C8.58 20.1296 8.58 20.2196 8.55 20.3196C8.53 20.4196 8.5 20.4696 8.46 20.4696H6.92C6.81 20.4696 6.75 20.4196 6.75 20.3296V17.4696C6.75 17.3896 6.78 17.3496 6.85 17.3496H8.46C8.52 17.3496 8.55 17.4796 8.55 17.7396C8.55 17.9996 8.52 18.1296 8.46 18.1296H7.63V18.5796H8.21Z" fill="#2E2F3C"/>
<path d="M11.0303 20.4596C10.7703 20.4596 10.6303 20.4196 10.6103 20.3396L10.4603 19.7696H9.74025L9.61025 20.3196C9.59025 20.4096 9.45025 20.4596 9.18025 20.4596C9.04025 20.4596 8.93025 20.4596 8.86025 20.4396C8.79025 20.4196 8.76025 20.4096 8.76025 20.3996L9.56025 17.3896C9.56025 17.3896 9.77025 17.3496 10.1803 17.3496C10.5903 17.3496 10.8003 17.3596 10.8003 17.3896L11.5803 20.4096C11.5803 20.4096 11.5103 20.4496 11.3703 20.4596C11.2303 20.4696 11.1203 20.4796 11.0403 20.4796L11.0303 20.4596ZM9.85025 19.1996H10.3203L10.1203 18.2796H10.0903L9.85025 19.1996Z" fill="#2E2F3C"/>
<path d="M12.6403 20.3901C12.6403 20.3901 12.5003 20.4601 12.2103 20.4601C11.9203 20.4601 11.7803 20.4401 11.7803 20.3901V17.4901C11.7803 17.3901 11.8403 17.3301 11.9503 17.3301H12.8103C13.6003 17.3301 14.0003 17.6301 14.0003 18.2401C14.0003 18.4201 13.9603 18.5901 13.8903 18.7401C13.8203 18.8901 13.7203 19.0101 13.5803 19.1001L14.1503 20.0401C14.1303 20.1101 14.0503 20.1901 13.9203 20.2801C13.7403 20.4101 13.5903 20.4701 13.4703 20.4701C13.3503 20.4701 13.2703 20.4301 13.2103 20.3501L12.7903 19.3701H12.6503V20.3801L12.6403 20.3901ZM12.6403 18.1201V18.7901H12.6603C12.9503 18.7901 13.0903 18.6701 13.0903 18.4401C13.0903 18.3301 13.0603 18.2501 13.0103 18.2001C12.9503 18.1501 12.8603 18.1201 12.7403 18.1201H12.6503H12.6403Z" fill="#2E2F3C"/>
<path d="M14.5201 19.3698C14.5801 19.4098 14.6801 19.4798 14.8201 19.5498C14.9601 19.6298 15.0901 19.6698 15.2201 19.6698C15.3501 19.6698 15.4101 19.6198 15.4101 19.5198C15.4101 19.4798 15.3901 19.4398 15.3601 19.3998C15.3201 19.3698 15.2601 19.3298 15.1601 19.2798C15.0601 19.2398 14.9901 19.1998 14.9401 19.1798C14.8901 19.1498 14.8301 19.1098 14.7501 19.0598C14.6701 18.9998 14.6101 18.9398 14.5701 18.8798C14.4501 18.7098 14.3901 18.4998 14.3901 18.2298C14.3901 17.9598 14.4901 17.7498 14.6901 17.5698C14.8901 17.3898 15.1401 17.2998 15.4601 17.2998C15.6801 17.2998 15.8801 17.3198 16.0601 17.3698C16.2401 17.4198 16.3401 17.4798 16.3401 17.5498V17.5798C16.3401 17.6798 16.3101 17.8198 16.2401 17.9698C16.1701 18.1298 16.1301 18.2198 16.1001 18.2298C15.9101 18.1298 15.7401 18.0798 15.5801 18.0798C15.4201 18.0798 15.3501 18.1298 15.3501 18.2398C15.3501 18.3098 15.4101 18.3598 15.5201 18.4098C15.5401 18.4198 15.5801 18.4398 15.6201 18.4598C15.6701 18.4798 15.7201 18.5098 15.7801 18.5298C15.8401 18.5598 15.9001 18.5898 15.9701 18.6398C16.0401 18.6798 16.1101 18.7398 16.1901 18.8098C16.3501 18.9598 16.4301 19.1498 16.4301 19.3998C16.4301 19.7198 16.3401 19.9798 16.1601 20.1798C15.9801 20.3798 15.7101 20.4898 15.3401 20.4898C15.1601 20.4898 15.0001 20.4798 14.8501 20.4498C14.7001 20.4198 14.5801 20.3598 14.4701 20.2798C14.3601 20.1898 14.3101 20.0898 14.3101 19.9698C14.3101 19.8498 14.3301 19.7298 14.3801 19.6098C14.4301 19.4898 14.4701 19.4098 14.5201 19.3698Z" fill="#2E2F3C"/>
<path d="M7.8801 5.9502C7.6401 5.8102 7.5601 5.5602 7.5001 5.3802C7.4801 5.3302 7.4601 5.2702 7.4501 5.2402C7.4201 5.2202 7.3501 5.2002 7.3001 5.1902C7.1201 5.1302 6.8601 5.0502 6.7201 4.8102C6.5801 4.5702 6.6401 4.3202 6.6801 4.1302C6.6901 4.0802 6.7101 4.0102 6.7101 3.9702C6.7101 3.9702 6.7101 3.9602 6.7001 3.9502H3.6301C3.4401 3.9502 3.3001 4.1302 3.2201 4.5002C3.1401 4.8702 3.1001 5.2502 3.1001 5.6402C3.1001 6.7802 3.2801 7.3502 3.6401 7.3502L4.5201 7.3302V16.1102C4.5201 16.3102 5.1301 16.4102 6.3501 16.4102C7.5701 16.4102 8.1801 16.3102 8.1801 16.1102V6.0402C8.0701 6.0402 7.9701 6.0002 7.8901 5.9502H7.8801Z" fill="#2E2F3C"/>
<path d="M15.9599 9.55996C15.3299 8.81996 14.3699 8.45996 13.0799 8.45996H12.4899L12.5099 7.15996H16.0299C16.1699 7.15996 16.2699 6.94996 16.3299 6.52996C16.3799 6.10996 16.4099 5.73996 16.4099 5.43996C16.4099 4.45996 16.2999 3.95996 16.0699 3.95996H12.2599C12.2599 3.95996 12.2599 3.96996 12.2499 3.97996C12.2499 4.01996 12.2699 4.08996 12.2799 4.13996C12.3199 4.32996 12.3699 4.57996 12.2399 4.81996C12.0999 5.05996 11.8499 5.13996 11.6599 5.19996C11.6099 5.20996 11.5499 5.23996 11.5099 5.24996C11.4899 5.27996 11.4699 5.34996 11.4599 5.38996C11.3999 5.56996 11.3199 5.81996 11.0799 5.95996C10.9799 6.01996 10.8599 6.04996 10.7199 6.04996C10.5999 6.04996 10.4899 6.02996 10.3899 6.00996C10.3299 5.99996 10.2699 5.98996 10.2299 5.97996C10.1999 5.99996 10.1499 6.03996 10.1199 6.07996C10.0099 6.17996 9.87992 6.29996 9.69992 6.35996V10.28C9.69992 10.48 9.75992 10.64 9.87992 10.77C9.99992 10.89 10.1199 10.95 10.2399 10.92L11.7899 10.9C12.8199 10.9 13.3399 11.37 13.3399 12.32C13.3399 12.7 13.1899 13.01 12.8999 13.25C12.6099 13.49 12.2299 13.61 11.7799 13.61C11.3299 13.61 10.6799 13.44 9.81992 13.09C9.75992 13.04 9.71992 13.02 9.70992 13.02C9.53992 13.02 9.40992 13.32 9.30992 13.92C9.20992 14.52 9.16992 14.98 9.16992 15.31C9.16992 15.64 9.21992 15.88 9.30992 16.03C9.92992 16.41 10.9299 16.6 12.2799 16.6C13.6299 16.6 14.7499 16.22 15.6199 15.45C16.4899 14.68 16.9199 13.7 16.9199 12.49C16.9199 11.28 16.5999 10.31 15.9699 9.56996L15.9599 9.55996Z" fill="#2E2F3C"/>
<path d="M11.8402 3.86C11.9002 3.65 12.2402 3.46 12.2402 3.23C12.2402 3 11.9002 2.81 11.8402 2.6C11.7802 2.38 11.9802 2.05 11.8702 1.86C11.7602 1.66 11.3702 1.67 11.2102 1.51C11.0502 1.35 11.0602 0.97 10.8602 0.86C10.6602 0.75 10.3302 0.94 10.1102 0.89C9.8902 0.83 9.7102 0.5 9.4702 0.5C9.2302 0.5 9.0502 0.83 8.8302 0.89C8.6102 0.95 8.2802 0.75 8.0802 0.86C7.8802 0.97 7.8902 1.36 7.7302 1.51C7.5702 1.67 7.1802 1.66 7.0702 1.86C6.9602 2.05 7.1602 2.38 7.1002 2.6C7.0402 2.81 6.7002 3 6.7002 3.23C6.7002 3.46 7.0402 3.65 7.1002 3.86C7.1602 4.08 6.9602 4.41 7.0702 4.6C7.1802 4.8 7.5702 4.79 7.7302 4.95C7.8902 5.11 7.8802 5.49 8.0802 5.6C8.2802 5.71 8.6102 5.52 8.8302 5.57C9.0502 5.63 9.2302 5.96 9.4702 5.96C9.7102 5.96 9.8902 5.63 10.1102 5.57C10.3302 5.51 10.6602 5.71 10.8602 5.6C11.0602 5.49 11.0502 5.1 11.2102 4.95C11.3702 4.79 11.7602 4.8 11.8702 4.6C11.9802 4.41 11.7802 4.08 11.8402 3.86ZM9.0102 4.43L8.0002 3.42L8.4902 2.93L9.0302 3.46L10.4702 2.03L10.9502 2.5L9.0102 4.42V4.43Z" fill="#2E2F3C"/>
</g>
<defs>
<clipPath id="clip0_55_1311">
<rect width="20" height="20" fill="white" transform="translate(0 0.5)"/>
</clipPath>
</defs>
</svg>